HIERARCHY
ROOT hip
{
  OFFSET 0 0 0
  CHANNELS 6 Xposition Yposition Zposition Zrotation Yrotation Xrotation
  JOINT abdomen
  {
    OFFSET 0 20.6881 -0.73152
    CHANNELS 3 Zrotation Xrotation Yrotation
    JOINT chest
    {
      OFFSET 0 11.7043 -0.48768
      CHANNELS 3 Zrotation Xrotation Yrotation
      JOINT neck
      {
        OFFSET 0 22.1894 -2.19456
        CHANNELS 3 Zrotation Xrotation Yrotation
        JOINT head
        {
          OFFSET -0.24384 7.07133 1.2192
          CHANNELS 3 Zrotation Xrotation Yrotation
          JOINT leftEye
          {
            OFFSET 4.14528 8.04674 8.04672
            CHANNELS 3 Zrotation Xrotation Yrotation
            End Site
            {
              OFFSET 1 0 0
            }
          }
          JOINT rightEye
          {
            OFFSET -3.6576 8.04674 8.04672
            CHANNELS 3 Zrotation Xrotation Yrotation
            End Site
            {
              OFFSET 1 0 0
            }
          }
        }
      }
      JOINT rCollar
      {
        OFFSET -2.68224 19.2634 -4.8768
        CHANNELS 3 Zrotation Xrotation Yrotation
        JOINT rShldr
        {
          OFFSET -8.77824 -1.95073 1.46304
          CHANNELS 3 Zrotation Xrotation Yrotation
          JOINT rForeArm
          {
            OFFSET -28.1742 -1.7115 0.48768
            CHANNELS 3 Zrotation Xrotation Yrotation
            JOINT rHand
            {
              OFFSET -22.5879 0.773209 7.07136
              CHANNELS 3 Zrotation Xrotation Yrotation
              JOINT rThumb1
              {
                OFFSET -1.2192 -0.487915 3.41376
                CHANNELS 3 Zrotation Xrotation Yrotation
                JOINT rThumb2
                {
                  OFFSET -3.37035 -0.52449 3.41376
                  CHANNELS 3 Zrotation Xrotation Yrotation
                  End Site
                  {
                    OFFSET -1.78271 -1.18214 1.43049
                  }
                }
              }
              JOINT rIndex1
              {
                OFFSET -7.75947 0.938293 5.60832
                CHANNELS 3 Zrotation Xrotation Yrotation
                JOINT rIndex2
                {
                  OFFSET -2.54057 -0.884171 1.56538
                  CHANNELS 3 Zrotation Xrotation Yrotation
                  End Site
                  {
                    OFFSET -1.62519 -0.234802 1.16502
                  }
                }
              }
              JOINT rMid1
              {
                OFFSET -8.24714 1.18213 3.41376
                CHANNELS 3 Zrotation Xrotation Yrotation
                JOINT rMid2
                {
                  OFFSET -3.10165 -0.590103 1.0647
                  CHANNELS 3 Zrotation Xrotation Yrotation
                  End Site
                  {
                    OFFSET -2.48547 -0.328903 0.83742
                  }
                }
              }
              JOINT rRing1
              {
                OFFSET -8.82822 0.546677 1.51678
                CHANNELS 3 Zrotation Xrotation Yrotation
                JOINT rRing2
                {
                  OFFSET -2.60934 -0.819778 -0.0198488
                  CHANNELS 3 Zrotation Xrotation Yrotation
                  End Site
                  {
                    OFFSET -2.33842 -0.294052 0.168128
                  }
                }
              }
              JOINT rPinky1
              {
                OFFSET -8.27202 -0.0477905 -0.4584
                CHANNELS 3 Zrotation Xrotation Yrotation
                JOINT rPinky2
                {
                  OFFSET -1.82734 -0.647385 -0.700984
                  CHANNELS 3 Zrotation Xrotation Yrotation
                  End Site
                  {
                    OFFSET -1.69225 -0.51767 -0.607171
                  }
                }
              }
            }
          }
        }
      }
      JOINT lCollar
      {
        OFFSET 2.68224 19.2634 -4.8768
        CHANNELS 3 Zrotation Xrotation Yrotation
        JOINT lShldr
        {
          OFFSET 8.77824 -1.95073 1.46304
          CHANNELS 3 Zrotation Xrotation Yrotation
          JOINT lForeArm
          {
            OFFSET 28.1742 -1.7115 0.48768
            CHANNELS 3 Zrotation Xrotation Yrotation
            JOINT lHand
            {
              OFFSET 22.5879 0.773209 7.07136
              CHANNELS 3 Zrotation Xrotation Yrotation
              JOINT lThumb1
              {
                OFFSET 1.2192 -0.487915 3.41376
                CHANNELS 3 Zrotation Xrotation Yrotation
                JOINT lThumb2
                {
                  OFFSET 3.37035 -0.52449 3.41376
                  CHANNELS 3 Zrotation Xrotation Yrotation
                  End Site
                  {
                    OFFSET 1.78271 -1.18214 1.43049
                  }
                }
              }
              JOINT lIndex1
              {
                OFFSET 7.75947 0.938293 5.60832
                CHANNELS 3 Zrotation Xrotation Yrotation
                JOINT lIndex2
                {
                  OFFSET 2.54057 -0.884171 1.56538
                  CHANNELS 3 Zrotation Xrotation Yrotation
                  End Site
                  {
                    OFFSET 1.62519 -0.234802 1.16502
                  }
                }
              }
              JOINT lMid1
              {
                OFFSET 8.24714 1.18213 3.41376
                CHANNELS 3 Zrotation Xrotation Yrotation
                JOINT lMid2
                {
                  OFFSET 3.10165 -0.590103 1.0647
                  CHANNELS 3 Zrotation Xrotation Yrotation
                  End Site
                  {
                    OFFSET 2.48547 -0.328903 0.83742
                  }
                }
              }
              JOINT lRing1
              {
                OFFSET 8.82822 0.546677 1.51678
                CHANNELS 3 Zrotation Xrotation Yrotation
                JOINT lRing2
                {
                  OFFSET 2.60934 -0.819778 -0.0198488
                  CHANNELS 3 Zrotation Xrotation Yrotation
                  End Site
                  {
                    OFFSET 2.33842 -0.294052 0.168128
                  }
                }
              }
              JOINT lPinky1
              {
                OFFSET 8.27202 -0.0477905 -0.4584
                CHANNELS 3 Zrotation Xrotation Yrotation
                JOINT lPinky2
                {
                  OFFSET 1.82734 -0.647385 -0.700984
                  CHANNELS 3 Zrotation Xrotation Yrotation
                  End Site
                  {
                    OFFSET 1.69225 -0.51767 -0.607171
                  }
                }
              }
            }
          }
        }
      }
    }
  }
  JOINT rButtock
  {
    OFFSET -8.77824 4.35084 1.2192
    CHANNELS 3 Zrotation Xrotation Yrotation
    JOINT rThigh
    {
      OFFSET 0 -1.70687 -2.19456
      CHANNELS 3 Zrotation Xrotation Yrotation
      JOINT rShin
      {
        OFFSET 0 -36.8199 0.73152
        CHANNELS 3 Zrotation Xrotation Yrotation
        JOINT rFoot
        {
          OFFSET 0.73152 -45.1104 -5.12064
          CHANNELS 3 Zrotation Xrotation Yrotation
          End Site
          {
            OFFSET -1.1221 -3.69964 12.103
          }
        }
      }
    }
  }
  JOINT lButtock
  {
    OFFSET 8.77824 4.35084 1.2192
    CHANNELS 3 Zrotation Xrotation Yrotation
    JOINT lThigh
    {
      OFFSET 0 -1.70687 -2.19456
      CHANNELS 3 Zrotation Xrotation Yrotation
      JOINT lShin
      {
        OFFSET 0 -36.8199 0.73152
        CHANNELS 3 Zrotation Xrotation Yrotation
        JOINT lFoot
        {
          OFFSET -0.73152 -45.1104 -5.12064
          CHANNELS 3 Zrotation Xrotation Yrotation
          End Site
          {
            OFFSET 1.1221 -3.69964 12.103
          }
        }
      }
    }
  }
}
MOTION
Frames:	6
Frame Time:	0.00833333
-1.72559 81.7027 59.0936 -5.8981 -6.9094 2.7797 9.12436 5.40834 6.24868 0.0537511 -3.67417 1.88198 -8.98743 -1.02226 -3.23852 8.55667 0.470505 -3.77974 -0.0 0.0 0.0 -0.0 0.0 0.0 7.83432e-15 6.53431e-14 1.09083e-13 72.2085 20.7457 9.16711 -16.0118 -8.69835 29.6974 -0.00563077 2.1057 0.296081 -6.7039e-10 2.39269e-09 -1.86603e-10 -1.1601e-09 4.14006e-09 -3.19238e-10 -6.70374e-10 2.39268e-09 -1.86606e-10 7.73091 5.47488 0.417314 -6.70376e-10 2.39269e-09 -1.86592e-10 2.90554 0.965183 0.102902 -6.70371e-10 2.39269e-09 -1.86596e-10 10.2786 0.731801 0.0259123 -6.70393e-10 2.39269e-09 -1.86596e-10 2.22167 -0.733487 -0.20892 7.71135e-15 6.53502e-14 1.08931e-13 -86.4919 12.8398 6.12921 10.6222 -4.5297 -18.9714 0.23115 13.5656 -1.94334 -8.51548e-10 -6.95347e-12 7.45365e-10 -1.46373e-09 -5.90283e-12 1.2973e-09 -8.51552e-10 -6.95485e-12 7.45376e-10 -7.73091 5.47488 -0.417314 -8.51545e-10 -6.95409e-12 7.45367e-10 -2.90554 0.965183 -0.102902 -8.51555e-10 -6.95417e-12 7.45367e-10 -10.2786 0.731801 -0.0259123 -8.51543e-10 -6.95285e-12 7.45358e-10 -2.22167 -0.733487 0.20892 -2.03217e-16 0.0 -3.88251e-19 10.4551 6.84703 5.93407 0.00651847 11.7762 0.402861 -1.6751 -10.0812 -5.13076 2.03217e-16 0.0 3.88251e-19 7.95356 -35.3565 -8.30384 0.0978913 21.0773 -0.345169 2.86905 -4.76309 15.0422
-1.6976 81.6384 59.8495 -6.0054 -7.1331 2.9801 9.04455 5.22124 6.38932 0.0552669 -3.65526 1.91652 -8.98028 -1.03836 -3.22353 8.577 0.5376 -3.75508 -0.0 0.0 0.0 -0.0 0.0 0.0 -5.81769e-14 4.6907e-14 1.10773e-13 72.3235 20.4251 9.23749 -15.9519 -8.64263 29.5712 -0.00649723 2.30088 0.323543 8.21696e-11 8.61719e-10 1.0145e-10 1.4185e-10 1.49236e-09 1.76074e-10 8.21883e-11 8.61712e-10 1.0145e-10 7.73091 5.47488 0.417314 8.21865e-11 8.61716e-10 1.01463e-10 2.90554 0.965183 0.102902 8.21919e-11 8.61716e-10 1.01457e-10 10.2786 0.731801 0.0259123 8.21649e-11 8.61724e-10 1.01457e-10 2.22167 -0.733487 -0.20892 -5.83148e-14 4.69178e-14 1.10624e-13 -86.5138 12.5063 6.12897 10.472 -4.4332 -18.6897 0.238804 13.7827 -1.97568 -1.13127e-10 2.30158e-10 8.17806e-10 -1.8737e-10 4.02792e-10 1.41409e-09 -1.1313e-10 2.30158e-10 8.17816e-10 -7.73091 5.47488 -0.417314 -1.13123e-10 2.30158e-10 8.17806e-10 -2.90554 0.965183 -0.102902 -1.13133e-10 2.30158e-10 8.17806e-10 -10.2786 0.731801 -0.0259123 -1.13122e-10 2.30159e-10 8.17797e-10 -2.22167 -0.733487 0.20892 -2.03217e-16 0.0 -3.88251e-19 10.2356 7.30755 6.09718 0.00583854 11.7174 0.398123 -1.66426 -10.2494 -5.01839 2.03217e-16 0.0 3.88251e-19 7.81705 -35.2693 -9.01923 0.0927392 20.4797 -0.336869 3.03088 -5.11055 15.5019
-1.58741 81.589 60.7036 -5.7887 -7.1725 2.98 8.96591 5.08357 6.44696 0.0163205 -3.64599 1.9274 -8.95832 -1.09077 -3.21481 8.58241 0.642257 -3.74468 -0.0 0.0 0.0 -0.0 0.0 0.0 -3.74588e-14 5.43426e-14 6.15782e-14 72.5168 20.0201 9.29253 -15.8969 -8.59177 29.4552 -0.00815145 2.64324 0.371727 7.60689e-11 7.89967e-10 -1.28475e-10 1.30484e-10 1.36909e-09 -2.21518e-10 7.60871e-11 7.8996e-10 -1.28478e-10 7.73091 5.47488 0.417314 7.6084e-11 7.89963e-10 -1.28465e-10 2.90554 0.965183 0.102902 7.60905e-11 7.89963e-10 -1.28471e-10 10.2786 0.731801 0.0259123 7.60632e-11 7.8997e-10 -1.28472e-10 2.22167 -0.733487 -0.20892 -3.75935e-14 5.43539e-14 6.14237e-14 -86.5413 12.3138 6.21625 10.4153 -4.39674 -18.5843 0.244908 13.9497 -2.00062 -3.01033e-10 3.02375e-10 7.06379e-10 -5.13432e-10 5.27276e-10 1.22432e-09 -3.01036e-10 3.02376e-10 7.06388e-10 -7.73091 5.47488 -0.417314 -3.01029e-10 3.02376e-10 7.06377e-10 -2.90554 0.965183 -0.102902 -3.01039e-10 3.02375e-10 7.06378e-10 -10.2786 0.731801 -0.0259123 -3.01029e-10 3.02376e-10 7.06368e-10 -2.22167 -0.733487 0.20892 -2.03217e-16 0.0 -3.88251e-19 10.0095 7.74611 6.20619 0.00469654 11.795 0.395573 -1.63994 -10.2349 -4.9087 2.03217e-16 0.0 3.88251e-19 7.76326 -35.1468 -8.93964 0.0901621 20.1253 -0.327153 3.0179 -5.21401 15.3022
-1.47789 81.5379 61.593 -5.6725 -7.1921 2.9665 8.88067 4.97595 6.44577 -0.0492596 -3.6423 1.92143 -8.92796 -1.17265 -3.209 8.58461 0.776904 -3.7405 -0.0 0.0 0.0 -0.0 0.0 0.0 3.26521e-14 7.45388e-14 -2.48357e-14 72.7697 19.5491 9.33441 -15.841 -8.54041 29.3375 -0.0111416 3.09881 0.435903 -3.31499e-10 1.46003e-09 -6.63992e-10 -5.75972e-10 2.52928e-09 -1.14608e-09 -3.31484e-10 1.46002e-09 -6.64e-10 7.73091 5.47488 0.417314 -3.31489e-10 1.46002e-09 -6.63988e-10 2.90554 0.965183 0.102902 -3.31481e-10 1.46002e-09 -6.63993e-10 10.2786 0.731801 0.0259123 -3.31506e-10 1.46003e-09 -6.63992e-10 2.22167 -0.733487 -0.20892 3.25327e-14 7.45486e-14 -2.50034e-14 -86.5673 12.2188 6.35194 10.4175 -4.39797 -18.5885 0.249417 14.072 -2.01892 -9.99716e-10 3.03435e-10 4.58397e-10 -1.72347e-09 5.29051e-10 8.04808e-10 -9.99718e-10 3.03438e-10 4.58405e-10 -7.73091 5.47488 -0.417314 -9.99713e-10 3.03437e-10 4.58392e-10 -2.90554 0.965183 -0.102902 -9.99722e-10 3.03436e-10 4.58395e-10 -10.2786 0.731801 -0.0259123 -9.99712e-10 3.03436e-10 4.58384e-10 -2.22167 -0.733487 0.20892 -2.03217e-16 0.0 -3.88251e-19 9.76929 8.14797 6.28467 0.00331922 12.0032 0.395172 -1.60848 -10.1313 -4.79245 2.03217e-16 0.0 3.88251e-19 7.74876 -34.9985 -8.31605 0.0895864 19.9911 -0.317285 2.88757 -5.15328 14.6662
-1.38042 81.4956 62.4292 -5.7649 -7.1551 3.0958 8.79376 4.88588 6.41619 -0.119867 -3.62125 1.90778 -8.90568 -1.26219 -3.20862 8.5974 0.909799 -3.74344 -0.0 0.0 0.0 -0.0 0.0 0.0 1.08059e-13 9.28469e-14 -1.14598e-13 73.0534 19.0616 9.33419 -15.7922 -8.49563 29.235 -0.0148752 3.52762 0.496384 -7.92268e-10 2.21466e-09 -1.18501e-09 -1.37439e-09 3.83561e-09 -2.04535e-09 -7.92256e-10 2.21465e-09 -1.18503e-09 7.73091 5.47488 0.417314 -7.92263e-10 2.21465e-09 -1.18501e-09 2.90554 0.965183 0.102902 -7.92254e-10 2.21465e-09 -1.18502e-09 10.2786 0.731801 0.0259123 -7.92276e-10 2.21465e-09 -1.18501e-09 2.22167 -0.733487 -0.20892 1.07958e-13 9.28546e-14 -1.14782e-13 -86.5881 12.1374 6.47131 10.4274 -4.40455 -18.6065 0.254141 14.2026 -2.03843 -1.70674e-09 2.94035e-10 2.00556e-10 -2.94791e-09 5.12759e-10 3.6821e-10 -1.70674e-09 2.94039e-10 2.00562e-10 -7.73091 5.47488 -0.417314 -1.70674e-09 2.94037e-10 2.00548e-10 -2.90554 0.965183 -0.102902 -1.70675e-09 2.94036e-10 2.00552e-10 -10.2786 0.731801 -0.0259123 -1.70674e-09 2.94036e-10 2.0054e-10 -2.22167 -0.733487 0.20892 -2.03217e-16 0.0 -3.88251e-19 9.51147 8.55643 6.33517 0.0019203 12.2822 0.39657 -1.57143 -9.97575 -4.66432 2.03217e-16 0.0 3.88251e-19 7.72352 -34.8033 -7.44253 0.0904555 20.0172 -0.308267 2.68469 -4.95753 13.7735
-1.23865 81.4786 63.3119 -5.6202 -7.0568 3.0644 8.71041 4.80091 6.38867 -0.173881 -3.5599 1.89565 -8.90795 -1.33759 -3.21618 8.63455 1.0092 -3.75437 -0.0 0.0 0.0 -0.0 0.0 0.0 1.44665e-13 9.4618e-14 -1.73837e-13 73.3381 18.6068 9.26307 -15.7584 -8.46457 29.1641 -0.0176466 3.7897 0.533394 -9.5797e-10 2.39659e-09 -1.37144e-09 -1.66165e-09 4.15079e-09 -2.36705e-09 -9.5796e-10 2.39659e-09 -1.37146e-09 7.73091 5.47488 0.417314 -9.5797e-10 2.39659e-09 -1.37145e-09 2.90554 0.965183 0.102902 -9.57961e-10 2.39659e-09 -1.37145e-09 10.2786 0.731801 0.0259123 -9.57979e-10 2.39659e-09 -1.37145e-09 2.22167 -0.733487 -0.20892 1.44576e-13 9.46246e-14 -1.74036e-13 -86.5998 11.9857 6.50968 10.3937 -4.38408 -18.5419 0.261053 14.3941 -2.06707 -1.91967e-09 3.34871e-10 5.95495e-11 -3.31718e-09 5.8304e-10 1.27182e-10 -1.91967e-09 3.34875e-10 5.95559e-11 -7.73091 5.47488 -0.417314 -1.91967e-09 3.34872e-10 5.954e-11 -2.90554 0.965183 -0.102902 -1.91968e-09 3.34872e-10 5.95455e-11 -10.2786 0.731801 -0.0259123 -1.91967e-09 3.34871e-10 5.95336e-11 -2.22167 -0.733487 0.20892 -2.03217e-16 0.0 -3.88251e-19 9.23231 9.01474 6.36038 0.000707432 12.5719 0.399412 -1.53013 -9.80509 -4.51893 2.03217e-16 0.0 3.88251e-19 7.64012 -34.5458 -6.61203 0.0922637 20.1437 -0.301132 2.45449 -4.65659 12.8039
